<svg width="142" height="142" xmlns="http://www.w3.org/2000/svg" xmlns:xlink="http://www.w3.org/1999/xlink"><defs><path id="a" d="M.182 35.932c0-15.464 12.76-28 29-28 15.24 0 28 12.536 28 28s-12.76 28-28 28c-16.24 0-29-12.536-29-28"/></defs><g fill="none" fill-rule="evenodd"><path d="M72 132c33.137 0 60-26.863 60-60s-26.863-60-60-60-60 26.863-60 60 26.863 60 60 60z" fill="#DAE1E7"/><path d="M106.455 31.463v70.456H36.939V19h54.793" fill="#FFF"/><path d="M91.879 19l15.078 12.946" stroke="#2E3D49" stroke-width="2" stroke-linecap="round"/><path d="M91.757 19H37v84h70V32M106 32H92m0 0V19.096" stroke="#2E3D49" stroke-width="2" stroke-linecap="round" stroke-linejoin="round"/><g stroke-width="2" stroke-linecap="round"><path d="M59 33h26m-26 5h15m4 0h5" stroke="#2E3D49" stroke-linejoin="round"/><path d="M46.47 34.462l1.947 1.88 4.077-4.245" stroke="#15C26B"/></g><path d="M59 48h34m-34 5h32" stroke="#2E3D49" stroke-width="2" stroke-linecap="round" stroke-linejoin="round"/><g stroke-width="2" stroke-linecap="round"><path d="M59.314 64.039h34.424M59 69h19m4 0h8" stroke="#2E3D49" stroke-linejoin="round"/><path d="M46.47 66.322l1.947 1.88 4.077-4.245" stroke="#15C26B"/></g><path d="M47.03 85.489l1.948 1.88 4.076-4.245" stroke="#15C26B" stroke-width="2" stroke-linecap="round"/><g stroke="#02B3E4" stroke-width="2" stroke-linecap="round"><path d="M49.182 47A3.182 3.182 0 1 1 46 50.182" stroke-linejoin="round"/><path d="M44.115 50.37l1.922-1.693 1.95 1.462"/></g><path d="M19 78.702v33.22h33.636l5.606 5.37v-5.37h16.819v-33.22H19z" fill="#91DAEE"/><path d="M30 89h34m-34 5h34m-34 5h34M19 79v33h34l5 5v-5h17V79H19z" stroke="#2E3D49" stroke-width="2" stroke-linecap="round" stroke-linejoin="round"/><g transform="translate(4 42)" stroke="#2E3D49" stroke-width="2"><path stroke-linejoin="round" fill="#ECC81A" d="M124.377 21.28l-4.174.716 1.97-3.748-1.97-3.748 4.174.716 2.955-3.032.61 4.19 3.797 1.874-3.798 1.874-.609 4.19zM8.1 15.163l-5.181-.735 3.926-3.756-.674-5.264 4.561 2.457 4.766-2.518-1.108 5.275 3.62 3.707-5.246.803-2.529 4.81z"/><ellipse fill="#FFF" cx="119.499" cy="2.498" rx="1.499" ry="1.498"/></g><g><path d="M72 103c0-15.464 12.536-28 28.491-28C115.464 75 128 87.536 128 103s-12.536 28-27.509 28C84.536 131 72 118.464 72 103" stroke="#2E3D49" stroke-width="2" fill="#02CCBA"/><g transform="translate(71.818 67.068)"><path d="M28.362 58.932c12.426 0 22.5-15.515 22.5-29.322 0-13.807-10.074-25-22.5-25s-22.5 11.193-22.5 25 10.074 29.322 22.5 29.322z" stroke="#2E3D49" stroke-width="2" fill="#ECC81A"/><mask id="b" fill="#fff"><use xlink:href="#a"/></mask><use xlink:href="#a"/><path d="M7.182 52.932h43l.439 12.825h-43l-.44-12.825z" fill="#02B3E4" mask="url(#b)"/><g stroke="#2E3D49" stroke-width="2"><path d="M50.182 53.727c-1.304-.911-.808-.727-2.391-1.23L37.737 50.24H19.215s-7.935 1.663-10.07 2.259c-2.133.596-2.424 1.23-2.424 1.23" fill="#02B3E4"/><path d="M22.729 43.862V40.86h12.496v2.951c0 1.208-.107 4.252 2.363 5.458.21.103 3.404 1.46 3.404 1.46s-4.597 4.353-12.48 4.214c-7.883-.138-11.871-4.214-11.871-4.214s2.855-1.313 3.198-1.46c2.505-1.072 2.79-3.09 2.89-5.407z" fill="#F4F4EB"/></g><path d="M15.312 25.449c0 .073-.01.143-.01.218 0 8.03 2.842 17.943 13.361 17.943s14.361-9.914 14.361-17.943c0-.164-.02-.322-.025-.483-5.222-1.345-9.007-5.464-10.257-10.68-.224-.933-.357-1.9-.39-2.894-.397 6.974-6.876 12.705-17.04 13.839z" stroke="#2E3D49" stroke-width="2" stroke-linecap="round" stroke-linejoin="round" fill="#FFF"/><path d="M21.182 27.432a1.5 1.5 0 1 1 3 0 1.5 1.5 0 0 1-3 0m11 0a1.5 1.5 0 1 1 3 0 1.5 1.5 0 0 1-3 0m-9.136 5.5c-.864 0-1.349.422-1.142 1.176.794 2.887 3.206 4.824 6.278 4.824 3.071 0 5.826-1.937 6.618-4.824.208-.754-.618-1.176-1.14-1.176H23.045z" fill="#2E3D48"/></g><path d="M128 103c0 15.58-12.55 28.018-28.045 28.018C84.46 131.018 72 118.58 72 103" stroke="#2E3D49" stroke-width="2"/></g></g></svg>